<?xml version="1.0" standalone="no"?>
<!DOCTYPE svg PUBLIC "-//W3C//DTD SVG 20010904//EN"
 "http://www.w3.org/TR/2001/REC-SVG-20010904/DTD/svg10.dtd">
<svg version="1.0" xmlns="http://www.w3.org/2000/svg"
 width="971.000000pt" height="971.000000pt" viewBox="0 0 971.000000 971.000000"
 preserveAspectRatio="xMidYMid meet">
<metadata>
Created by potrace 1.14, written by Peter Selinger 2001-2017
</metadata>
<g transform="translate(0.000000,971.000000) scale(0.100000,-0.100000)"
fill="#000000" stroke="none">
<path d="M715 7662 c-37 -3 -177 -24 -253 -37 -18 -4 -69 -17 -115 -31 -45
-14 -90 -27 -100 -29 -18 -4 -114 -38 -147 -52 -8 -3 -17 -7 -20 -8 -31 -8
-50 -18 -50 -26 0 -6 -5 -7 -10 -4 -6 3 -10 1 -10 -5 0 -7 15 -9 43 -6 125 16
209 20 367 21 222 0 346 -13 540 -55 25 -6 54 -12 65 -14 11 -1 28 -6 38 -9 9
-4 25 -10 35 -14 9 -3 26 -8 37 -10 27 -5 195 -64 220 -77 11 -5 25 -11 31
-12 17 -3 245 -118 291 -147 24 -15 47 -27 53 -27 5 0 10 -4 10 -9 0 -5 10
-13 23 -17 12 -4 24 -10 27 -13 3 -4 21 -17 40 -29 20 -11 45 -29 57 -39 12
-10 31 -25 43 -33 130 -88 404 -349 524 -500 37 -47 73 -92 79 -100 11 -14 58
-81 250 -355 39 -55 88 -123 109 -152 21 -29 38 -56 38 -62 0 -5 3 -11 8 -13
10 -4 112 -157 112 -168 0 -6 4 -10 8 -10 5 0 15 -12 23 -27 7 -16 35 -60 61
-100 27 -40 48 -74 48 -77 0 -3 13 -25 30 -49 16 -25 30 -49 30 -55 0 -6 4
-12 8 -14 11 -4 132 -204 132 -217 0 -6 5 -11 10 -11 6 0 10 -6 10 -14 0 -8 6
-21 14 -28 7 -8 24 -32 36 -54 12 -21 32 -57 45 -79 14 -22 29 -49 35 -60 6
-11 19 -33 29 -50 48 -78 186 -313 195 -332 6 -13 14 -23 19 -23 4 0 7 -5 7
-10 0 -6 55 -104 121 -218 67 -114 130 -222 140 -239 35 -61 59 -103 80 -140
12 -21 47 -83 79 -138 32 -55 67 -116 77 -135 45 -79 68 -116 80 -128 7 -7 13
-20 13 -28 0 -8 7 -17 15 -20 8 -4 15 -12 15 -18 0 -7 9 -22 20 -34 11 -12 20
-25 20 -29 1 -4 14 -24 30 -43 17 -19 30 -39 30 -45 0 -6 9 -17 20 -25 11 -8
20 -20 20 -27 0 -7 4 -13 8 -13 4 0 16 -13 25 -30 10 -16 23 -35 30 -42 7 -7
32 -40 57 -73 24 -33 51 -68 60 -77 8 -9 20 -23 25 -30 99 -129 419 -464 507
-533 14 -11 44 -37 67 -57 22 -21 45 -38 51 -38 5 0 10 -3 10 -7 0 -5 27 -28
60 -53 33 -24 60 -48 60 -52 0 -5 5 -8 11 -8 6 0 23 -10 38 -22 116 -97 441
-308 561 -364 54 -26 203 -86 220 -89 3 -1 37 -11 75 -23 39 -12 73 -22 77
-22 4 0 26 -7 48 -15 22 -8 42 -14 45 -14 9 -1 60 -12 96 -21 19 -5 51 -12 70
-14 18 -3 43 -7 54 -9 11 -3 46 -8 79 -12 32 -3 68 -8 80 -10 79 -14 258 -21
274 -11 6 3 13 3 15 -1 6 -9 40 -9 187 1 87 6 154 13 205 22 11 2 40 6 65 9
25 3 101 19 170 35 69 17 135 32 147 35 115 27 420 147 588 233 158 80 165 84
165 93 0 5 3 8 8 7 9 -3 33 12 195 119 70 47 127 89 127 94 0 5 6 9 14 9 8 0
16 7 20 15 7 20 5 19 -99 -11 -50 -14 -97 -28 -105 -29 -8 -2 -69 -18 -134
-35 -66 -18 -127 -33 -135 -35 -9 -2 -63 -15 -121 -29 -109 -26 -306 -66 -350
-72 -14 -1 -52 -6 -85 -10 -33 -4 -86 -8 -117 -8 -32 -1 -58 -4 -58 -8 0 -7
-506 -3 -570 5 -19 3 -65 8 -102 11 -37 4 -81 11 -97 16 -16 4 -32 6 -35 3 -3
-3 -13 -2 -23 2 -10 5 -21 7 -26 7 -4 -1 -28 3 -55 9 -26 6 -56 12 -67 14 -17
4 -91 22 -120 30 -5 1 -13 3 -17 4 -19 4 -88 30 -133 51 -78 34 -403 196 -474
236 -60 34 -220 139 -231 153 -3 3 -34 30 -70 60 -65 54 -363 349 -410 406
-66 79 -127 154 -150 185 -14 18 -30 38 -35 44 -6 6 -40 52 -75 101 -36 50
-67 92 -70 95 -15 12 -170 242 -170 250 0 6 -3 10 -8 10 -4 0 -32 39 -62 88
-30 48 -58 92 -63 97 -19 24 -98 152 -103 168 -3 9 -10 17 -15 17 -5 0 -9 4
-9 8 0 5 -31 60 -69 123 -37 63 -82 139 -98 169 -67 124 -97 176 -115 202 -10
14 -18 29 -18 33 0 4 -14 27 -30 52 -16 24 -30 46 -30 47 0 2 -18 33 -40 67
-22 35 -46 75 -52 89 -7 14 -16 30 -20 35 -5 6 -96 143 -204 305 -108 162
-200 297 -205 298 -5 2 -9 8 -9 13 0 5 -34 56 -75 114 -41 58 -75 110 -75 115
0 6 -4 10 -9 10 -5 0 -21 20 -35 44 -14 25 -32 51 -39 58 -12 12 -139 189
-162 226 -5 9 -20 27 -32 41 -13 14 -23 29 -23 33 0 3 -6 13 -13 20 -7 7 -39
49 -72 93 -33 44 -64 85 -70 91 -5 6 -23 29 -40 50 -26 34 -98 118 -175 208
-48 55 -335 341 -383 381 -26 22 -62 53 -80 68 -46 40 -242 186 -307 228 -118
77 -145 93 -152 91 -5 -1 -8 3 -8 8 0 6 -4 10 -10 10 -5 0 -31 13 -57 28 -89
52 -371 173 -435 188 -5 1 -9 2 -10 4 -2 1 -10 3 -18 5 -8 3 -58 16 -110 30
-52 13 -113 27 -135 31 -22 3 -42 7 -46 9 -3 2 -30 7 -60 10 -30 3 -67 8 -84
12 -32 6 -361 10 -430 5z"/>
<path d="M5873 6982 c-37 -4 -58 -31 -48 -62 5 -15 16 -20 43 -21 95 -2 213
-12 297 -25 22 -3 54 -7 70 -8 39 -3 75 -15 75 -26 0 -5 8 -11 19 -15 42 -13
141 -125 141 -159 0 -9 5 -16 10 -16 6 0 9 -3 8 -7 -1 -5 3 -30 10 -58 25
-108 28 -145 36 -397 2 -81 7 -152 10 -157 4 -5 2 -12 -4 -16 -6 -4 -8 -11 -5
-16 4 -5 8 -82 10 -172 3 -89 7 -256 11 -372 3 -115 7 -277 9 -360 9 -439 17
-690 20 -694 2 -2 0 -12 -6 -22 -5 -11 -6 -19 -2 -19 5 0 9 -51 9 -112 2 -299
13 -730 18 -735 3 -3 1 -13 -4 -23 -5 -10 -7 -20 -3 -23 3 -4 7 -82 9 -174 4
-227 13 -631 19 -833 5 -155 7 -166 27 -180 27 -18 81 -39 130 -49 21 -5 44
-14 53 -21 8 -7 15 -9 15 -5 0 4 6 3 13 -3 7 -6 31 -14 54 -18 l40 -6 2 108
c1 60 3 121 5 137 2 15 -1 30 -6 33 -4 3 -5 10 -2 16 4 6 8 409 10 897 6 1636
12 2473 18 2478 3 3 1 14 -5 24 -5 11 -6 19 -2 19 4 0 8 75 9 168 1 347 20
597 48 631 6 8 9 15 8 15 -13 4 25 55 51 69 91 47 364 58 546 22 14 -3 44 -8
66 -11 47 -8 224 -68 275 -94 69 -36 179 -116 244 -177 37 -35 71 -63 76 -63
5 0 18 -19 28 -42 11 -24 29 -54 41 -68 49 -56 61 -70 61 -76 0 -3 15 -37 34
-77 48 -104 109 -294 122 -382 2 -11 6 -36 9 -55 7 -47 7 -331 -1 -400 -3 -30
-7 -66 -9 -80 -1 -14 -5 -32 -8 -40 -3 -8 -20 -60 -38 -115 -17 -55 -44 -116
-59 -135 -15 -19 -32 -44 -37 -55 -6 -11 -36 -51 -67 -90 -31 -38 -56 -76 -56
-82 0 -7 -8 -13 -19 -13 -21 0 -71 -46 -71 -65 0 -7 -12 -16 -27 -19 -14 -4
-45 -20 -68 -36 -46 -32 -197 -111 -217 -114 -7 -1 -17 -4 -23 -7 -5 -4 -23
-10 -40 -14 -16 -5 -34 -9 -40 -11 -5 -2 -20 -5 -33 -8 -13 -3 -31 -7 -40 -10
-36 -10 -100 -18 -172 -22 -41 -1 -75 -3 -75 -4 0 -1 -30 -3 -68 -4 -46 -2
-73 -9 -86 -20 -23 -21 -21 -45 4 -59 26 -14 356 -9 371 6 4 4 15 2 25 -3 11
-6 20 -6 24 -1 3 6 13 10 23 10 21 0 66 7 70 11 1 1 14 3 30 4 15 1 43 6 62
11 19 5 37 9 40 10 21 4 178 60 199 71 14 8 30 14 34 14 16 0 136 62 148 76 6
8 15 14 20 14 33 0 148 93 295 238 91 90 130 142 117 156 -4 3 1 6 10 6 17 0
57 50 57 72 0 8 9 23 19 33 21 18 81 135 81 157 0 8 7 23 15 35 8 12 16 29 18
40 1 10 5 23 9 28 3 6 17 57 31 115 39 161 47 225 47 395 1 66 -1 129 -3 140
-6 27 -20 106 -22 125 -3 24 -54 172 -73 210 -28 58 -100 168 -134 207 -155
173 -227 231 -358 289 -19 9 -50 23 -68 31 -18 9 -41 16 -50 17 -9 1 -26 6
-37 13 -18 10 -101 36 -151 48 -219 51 -319 59 -684 57 -580 -3 -1223 -3
-1410 0 -107 2 -210 2 -227 0z m2097 -2558 c0 -8 -5 -12 -10 -9 -6 4 -8 11 -5
16 9 14 15 11 15 -7z"/>
<path d="M2172 6427 c-2 -67 -5 -253 -6 -413 -2 -160 -6 -296 -10 -302 -4 -7
-4 -12 1 -12 10 0 9 -52 -1 -68 -4 -7 -4 -12 1 -12 4 0 8 -31 8 -70 0 -38 -3
-70 -7 -70 -4 0 -3 -13 2 -29 4 -16 6 -31 4 -34 -3 -2 -7 -463 -9 -1023 -7
-1421 -12 -1837 -28 -2251 -1 -18 -5 -33 -9 -33 -4 0 -5 -6 -2 -14 10 -27 -37
-194 -67 -235 -16 -23 -29 -45 -29 -51 0 -5 -5 -10 -12 -10 -6 0 -34 -11 -62
-25 -28 -13 -64 -27 -81 -30 -66 -14 -133 -25 -180 -30 -102 -9 -130 -16 -142
-32 -17 -22 0 -51 35 -60 52 -14 556 -4 622 13 31 8 39 8 125 0 111 -11 992
-16 1017 -7 25 9 30 28 14 50 -6 8 -11 17 -11 20 0 3 -20 7 -45 8 -183 8 -361
38 -429 72 -39 21 -131 100 -131 114 0 5 -11 32 -24 60 -43 95 -76 270 -91
476 -3 46 -8 87 -11 92 -3 5 0 9 6 9 6 0 8 5 4 11 -7 12 -10 84 -29 664 -10
289 -27 975 -29 1147 0 54 -5 98 -10 98 -5 0 -4 6 0 13 5 6 8 23 7 37 -3 33
-11 301 -17 560 -3 113 -8 297 -11 410 -3 113 -7 310 -10 439 l-4 234 -38 55
c-21 30 -45 57 -53 59 -9 2 -16 12 -17 22 -1 10 -14 31 -30 48 -15 16 -46 52
-68 79 -89 108 -122 143 -135 144 -3 0 -7 -55 -8 -123z m158 -47 c0 -5 -4 -10
-10 -10 -5 0 -10 5 -10 10 0 6 5 10 10 10 6 0 10 -4 10 -10z"/>
</g>
</svg>
